<svg id="visual" viewBox="0 0 540 960" width="540" height="960" xmlns="http://www.w3.org/2000/svg"
  xmlns:xlink="http://www.w3.org/1999/xlink" version="1.1">
  <rect x="0" y="0" width="540" height="960" fill="#0066ff"></rect>
  <defs>
    <linearGradient id="grad1_0" x1="0%" y1="0%" x2="100%" y2="100%">
      <stop offset="30%" stop-color="#0066ff" stop-opacity="1"></stop>
      <stop offset="70%" stop-color="#0066ff" stop-opacity="1"></stop>
    </linearGradient>
  </defs>
  <defs>
    <linearGradient id="grad2_0" x1="0%" y1="0%" x2="100%" y2="100%">
      <stop offset="30%" stop-color="#0066ff" stop-opacity="1"></stop>
      <stop offset="70%" stop-color="#0066ff" stop-opacity="1"></stop>
    </linearGradient>
  </defs>
  <g transform="translate(540, 0)">
    <path
      d="M0 378C-17.5 309.3 -35 240.5 -58.8 219.3C-82.5 198 -112.6 224.2 -127.5 220.8C-142.4 217.5 -142.3 184.6 -180.3 180.3C-218.3 176 -294.6 200.2 -327.4 189C-360.1 177.8 -349.4 131.3 -350.6 94C-351.8 56.6 -364.9 28.3 -378 0L0 0Z"
      fill="#1E40AF"></path>
  </g>
  <g transform="translate(0, 960)">
    <path
      d="M0 -378C40.8 -391.4 81.7 -404.9 97.8 -365.1C114 -325.3 105.4 -232.4 109 -188.8C112.6 -145.2 128.2 -151.1 149.9 -149.9C171.6 -148.7 199.4 -140.5 221.7 -128C244 -115.5 260.8 -98.7 285.9 -76.6C311 -54.6 344.5 -27.3 378 0L0 0Z"
      fill="#1E40AF"></path>
  </g>
</svg>