<svg id="visual" viewBox="0 0 540 960" width="540" height="960" xmlns="http://www.w3.org/2000/svg" xmlns:xlink="http://www.w3.org/1999/xlink" version="1.1"><rect x="0" y="0" width="540" height="960" fill="#f3f3fa"></rect><defs><linearGradient id="grad1_0" x1="0%" y1="100%" x2="100%" y2="0%"><stop offset="30%" stop-color="#f3f3fa" stop-opacity="1"></stop><stop offset="70%" stop-color="#f3f3fa" stop-opacity="1"></stop></linearGradient></defs><defs><linearGradient id="grad2_0" x1="0%" y1="100%" x2="100%" y2="0%"><stop offset="30%" stop-color="#f3f3fa" stop-opacity="1"></stop><stop offset="70%" stop-color="#f3f3fa" stop-opacity="1"></stop></linearGradient></defs><g transform="translate(540, 960)"><path d="M-324 0C-271.3 -16.5 -218.5 -33 -204.8 -54.9C-191 -76.7 -216.3 -104 -213 -123C-209.8 -142 -178 -152.7 -152 -152C-126.1 -151.3 -106 -139.3 -99 -171.5C-92 -203.7 -98.2 -280.2 -83.9 -313C-69.5 -345.8 -34.8 -334.9 0 -324L0 0Z" fill="#d8e2ff"></path></g><g transform="translate(0, 0)"><path d="M324 0C268.9 17.6 213.8 35.2 197 52.8C180.3 70.4 201.9 88 220.8 127.5C239.8 167 256.1 228.3 229.1 229.1C202.1 229.9 131.8 170.3 104.5 181C77.2 191.7 92.8 272.6 82.6 308.1C72.3 343.7 36.2 333.8 0 324L0 0Z" fill="#d8e2ff"></path></g></svg>