<?xml version="1.0" standalone="no"?>
<!DOCTYPE svg PUBLIC "-//W3C//DTD SVG 20010904//EN" "http://www.w3.org/TR/2001/REC-SVG-20010904/DTD/svg10.dtd">
<svg version="1.0" xmlns="http://www.w3.org/2000/svg"
  width="560.000000pt" height="560.000000pt" viewBox="0 0 560.000000 560.000000"
  preserveAspectRatio="xMidYMid meet">

  <g transform="translate(0.000000,560.000000) scale(0.100000,-0.100000)"
    fill="#ffffff" stroke="none">
    <path
      d="M2733 5171 c-17 -4 -231 -114 -475 -243 -244 -130 -663 -351 -933
-493 -1180 -620 -1114 -582 -1148 -649 -30 -57 -34 -133 -10 -188 30 -65 88
-110 283 -214 l175 -93 3 -203 2 -203 -34 -22 c-126 -81 -142 -268 -33 -381
l31 -32 -42 -178 c-22 -97 -62 -265 -87 -372 -49 -205 -52 -258 -21 -317 24
-46 78 -95 136 -122 76 -35 210 -37 284 -3 71 32 113 67 136 113 40 78 38 97
-55 489 -48 201 -89 369 -92 373 -3 5 10 22 30 38 82 68 106 208 53 306 -16
29 -46 64 -67 79 l-39 27 0 153 c0 85 3 154 6 154 3 0 70 -33 147 -74 318
-165 1695 -854 1729 -866 56 -17 175 -15 233 5 28 10 181 85 340 167 160 83
362 187 450 233 588 304 1271 659 1522 792 135 71 185 117 203 184 22 82 -13
175 -87 226 -30 21 -560 301 -1228 648 -220 114 -597 311 -838 437 -378 198
-446 230 -490 233 -29 2 -66 0 -84 -4z" />
    <path
      d="M1222 2289 l4 -484 27 -80 c48 -143 123 -246 241 -329 33 -24 189
-111 346 -194 157 -83 412 -218 568 -300 l283 -150 -3 557 -3 556 -33 68 c-61
123 -79 134 -897 559 -159 83 -345 180 -413 215 l-124 65 4 -483z" />
    <path
      d="M3945 2537 c-236 -123 -529 -275 -650 -337 -239 -124 -292 -165 -333
-253 -12 -26 -27 -69 -32 -95 -7 -29 -9 -298 -8 -722 3 -673 3 -675 21 -615
47 152 156 303 277 384 30 21 138 82 240 135 505 268 649 348 713 401 64 51
114 117 157 203 57 116 60 142 60 655 0 257 -3 467 -7 467 -5 0 -201 -101
-438 -223z" />
  </g>
</svg>