<svg id="visual" viewBox="0 0 540 960" width="540" height="960" xmlns="http://www.w3.org/2000/svg" xmlns:xlink="http://www.w3.org/1999/xlink" version="1.1"><rect x="0" y="0" width="540" height="960" fill="#0066FF"></rect><path d="M0 610L77 565L154 642L231 635L309 564L386 622L463 615L540 699L540 961L463 961L386 961L309 961L231 961L154 961L77 961L0 961Z" fill="#3b82f6"></path><path d="M0 718L77 695L154 687L231 669L309 745L386 751L463 730L540 763L540 961L463 961L386 961L309 961L231 961L154 961L77 961L0 961Z" fill="#3371e5"></path><path d="M0 811L77 746L154 791L231 790L309 711L386 816L463 818L540 728L540 961L463 961L386 961L309 961L231 961L154 961L77 961L0 961Z" fill="#2c60d3"></path><path d="M0 867L77 809L154 850L231 845L309 777L386 855L463 792L540 861L540 961L463 961L386 961L309 961L231 961L154 961L77 961L0 961Z" fill="#2550c1"></path><path d="M0 840L77 907L154 886L231 856L309 882L386 842L463 915L540 911L540 961L463 961L386 961L309 961L231 961L154 961L77 961L0 961Z" fill="#1e40af"></path></svg>